PathFileType	4	(X/Y/Z)	C:/Users/beibeiliu/ov580/test_trc\sequence.38_training_dense_right.trc
DataRate	CameraRate	NumFrames	NumMarkers	Units	OrigDataRate	OrigDataStartFrame	OrigNumFrames
120	120	22	19	mm	120	157	312
Frame#	Time	ThumbCMC			ThumbMCP			ThumbIP			ThumbTip			IndexMCP			IndexPIP			IndexTip			MiddleMCP			MiddlePIP			MiddleTip			RingMCP			RingPIP			RingTip			PinkyMCP			PinkyPIP			PinkyTip			BackHand1			BackHand2			BackHand3	
		X0	Y0	Z0	X1	Y1	Z1	X2	Y2	Z2	X3	Y3	Z3	X4	Y4	Z4	X5	Y5	Z5	X6	Y6	Z6	X7	Y7	Z7	X8	Y8	Z8	X9	Y9	Z9	X10	Y10	Z10	X11	Y11	Z11	X12	Y12	Z12	X13	Y13	Z13	X14	Y14	Z14	X15	Y15	Z15	X16	Y16	Z16	X17	Y17	Z17	X18	Y18	Z18	
156	1.3	195.52	3.59831	24.6046	186.524	3.90532	-0.616947	188.405	4.8048	-25.5432	190.18	3.15817	-46.1412	216.529	-0.359883	-39.0684	196.614	-20.859	-47.0133	183.562	-26.1253	-24.1912	224.392	-20.9838	-37.708	200.256	-34.6687	-41.3429	193.372	-33.5553	-5.46816	227.144	-35.2788	-32.0566	201.799	-44.5672	-24.6184	197.698	-35.8255	0.515875	236.205	-48.6161	-18.0756	211.801	-50.6291	-18.5281	202.846	-39.1914	5.98863	246.471	-17.568	11.8834	237.85	-17.6069	41.0987	229.531	4.27405	25.0447	
157	1.30833	194.567	5.69676	24.5106	189.991	7.48139	-7.50092	191.005	7.84203	-31.1442	194.696	2.38729	-50.4862	220.666	1.15899	-36.3915	198.639	-15.0689	-49.5355	183.835	-23.5001	-23.3256	224.415	-18.477	-40.3062	200.967	-36.0533	-38.3103	194	-31.9001	-6.85025	231.162	-37.1801	-29.2093	205.058	-43.7471	-28.6066	197.444	-38.5237	-0.710237	237.065	-48.4906	-19.0004	212.368	-49.7395	-20.2315	202.832	-40.1628	1.00411	246.792	-17.3344	17.3449	239.069	-14.8222	42.7871	227.597	6.82366	23.9232	
158	1.31667	199.313	7.48736	18.1617	188.771	8.50739	-6.35199	192.32	6.66686	-31.6494	194.273	2.51103	-54.7637	223.657	0.53576	-40.0021	202.72	-12.5391	-51.0647	186.434	-25.0217	-26.2927	230.162	-18.7043	-38.0539	204.244	-34.2455	-42.1828	195.167	-32.0698	-9.76325	232.162	-34.8285	-30.3835	206.882	-41.6055	-29.6113	197.54	-31.5212	-1.5228	238.064	-49.1098	-19.4778	211.485	-47.834	-20.2906	203.587	-41.079	1.63804	249.362	-18.0225	12.5737	238.101	-15.8536	39.1129	229.476	7.28148	22.2174	
159	1.325	198.168	9.53478	20.6633	193.504	6.68848	-8.09683	192.334	6.70342	-29.4197	195.923	0.973884	-55.5029	223.358	2.96799	-40.9807	206.154	-12.4564	-51.4337	185.618	-21.6889	-27.8165	231.956	-15.709	-37.5702	203.463	-34.3207	-40.1018	195.34	-30.9306	-13.2292	232.717	-31.2849	-29.9746	205.657	-40.6842	-29.763	197.82	-34.9569	-4.50687	238.976	-44.1011	-18.7731	212.418	-49.6006	-20.8704	205.204	-35.126	-1.42442	248.965	-19.6542	16.6086	241.121	-19.4396	39.3362	235.202	4.47119	21.7797	
160	1.33333	202.988	7.95696	16.7174	189.11	10.2097	-9.53874	188.676	10.3835	-32.9311	193.151	2.44676	-56.8968	224.728	5.44346	-40.8296	207.06	-11.5641	-51.8662	187.068	-22.8732	-27.2661	229.949	-14.4196	-41.579	203.507	-28.898	-43.1702	195.53	-29.2633	-15.4558	232.016	-31.736	-34.015	206.742	-37.6607	-31.6462	198.816	-31.9707	-4.36838	238.055	-45.9992	-20.87	215.598	-46.3692	-24.0344	204.947	-37.4617	-3.36649	248.586	-16.4607	16.8562	242.253	-17.7973	38.5284	231.923	8.27326	22.7618	
161	1.34167	200.606	9.98668	18.8419	190.314	9.46411	-11.1847	190.523	9.38754	-36.1961	190.461	2.75873	-53.5602	227.304	7.23974	-40.2093	208.882	-11.3116	-52.9596	188.665	-21.4606	-29.6119	231.223	-12.2473	-42.1817	210.45	-30.0698	-46.2243	193.247	-26.2693	-18.733	234.275	-31.2061	-32.5572	207.826	-38.2409	-32.588	197.783	-33.1095	-9.8166	237.699	-44.115	-21.7431	215.107	-48.8875	-23.1729	204.194	-37.3388	-2.86534	249.26	-13.7095	12.9413	240.353	-15.0089	42.6764	233.576	9.53392	24.1603	
162	1.35	203.096	11.3204	16.9301	189.763	11.2484	-10.3774	189.512	9.65776	-32.2901	189.538	2.66456	-52.7466	229.434	8.2768	-38.2368	211.676	-8.1698	-54.5809	189.104	-16.7262	-38.2782	233.645	-12.2782	-42.0708	208.935	-25.0814	-49.1966	193.063	-24.4484	-17.9838	234.061	-27.8502	-34.5072	209.197	-34.7075	-36.2731	198.998	-29.0295	-8.55723	241.374	-45.7436	-20.9118	215.088	-45.166	-25.7916	205.288	-33.2218	-4.18871	251.821	-17.6925	11.8704	243.376	-16.9336	40.7224	233.877	10.0643	19.8156	
163	1.35833	201.311	13.4297	19.3519	192.598	11.0871	-11.2844	190.996	8.61838	-33.842	188.823	2.98044	-53.6464	227.803	11.7245	-42.6952	211.744	-3.8727	-54.7401	190.314	-17.8912	-35.7395	235.605	-7.80357	-40.9097	211.797	-25.7029	-49.3068	193.24	-24.2157	-24.5237	236.662	-28.6452	-34.6465	210.222	-36.7963	-35.7352	198.688	-32.2401	-12.3103	239.595	-42.8863	-22.6641	215.95	-42.2604	-27.2617	203.171	-30.5564	-5.19936	251.226	-14.6428	14.3847	244.345	-15.6179	39.2589	233.966	8.28545	24.6754	
164	1.36667	204.512	12.2843	19.3854	191.888	11.8969	-9.11031	190.66	11.0595	-34.2515	188.861	3.79443	-50.4768	233.45	11.3991	-39.1517	210.072	-0.599329	-54.9742	191.826	-12.3199	-40.2123	235.565	-7.34303	-41.5494	211.066	-20.4831	-49.3964	193.391	-23.9543	-21.721	237.043	-26.719	-34.5569	211.428	-33.8195	-35.8363	198.708	-28.9221	-10.6923	241.362	-42.0636	-21.9991	216.574	-45.8601	-26.7015	202.641	-30.1209	-5.04642	253.26	-16.3347	15.6849	242.511	-17.4891	43.6854	235.004	8.35108	25.9056	
165	1.375	205.693	13.2518	22.1423	192.444	12.7577	-8.44088	190.013	13.3873	-35.1526	190.814	3.54492	-52.9948	233.134	15.4298	-36.8625	212.544	1.0425	-55.333	192.521	-9.70988	-41.6563	240.235	-10.2716	-37.3328	212.16	-22.3742	-47.9052	194.461	-25.0645	-22.381	239.136	-28.2032	-32.9068	213.982	-29.6201	-37.7909	199.096	-29.7346	-11.7019	238.564	-38.3281	-24.1113	218.322	-40.4062	-28.5	201.94	-30.9675	-6.42533	251.569	-14.4342	18.999	243.601	-18.0709	41.2889	236.986	8.6805	25.7086	
166	1.38333	208.336	14.324	18.4878	195.521	13.1008	-8.65582	189.638	14.1445	-28.8829	190.782	6.61804	-48.9776	237.217	12.457	-36.3971	216.362	0.958316	-54.2892	193.83	-8.71508	-41.9886	239.358	-6.37682	-39.8799	212.943	-16.9578	-49.3781	193.488	-19.0158	-22.3207	240.468	-25.7508	-31.6203	212.979	-32.9355	-35.8192	198.99	-28.1134	-13.51	242.396	-37.483	-19.1413	218.144	-41.8545	-27.3354	205.588	-27.7974	-10.8449	251.574	-14.3987	15.6399	243.286	-17.5062	40.5756	239.528	9.72987	27.1172	
167	1.39167	206.922	16.9213	21.4436	196.231	14.6918	-5.59821	193.543	15.5222	-33.202	191.331	7.08305	-48.6999	237.3	17.3717	-36.2677	220.302	6.24401	-54.1581	195.338	-10.138	-40.6887	241.223	-4.8302	-37.6526	217.265	-16.9522	-49.1501	194.535	-21.6131	-22.2734	241.532	-26.1584	-30.1612	212.432	-29.4688	-36.114	199.723	-28.1781	-12.8708	242.12	-41.3089	-19.2011	219.89	-39.0117	-27.6234	205.718	-28.8668	-8.63431	252.498	-16.8853	16.9493	244.216	-18.8465	44.4965	242.325	7.80414	28.4888	
168	1.4	207.607	17.7826	23.737	200.02	13.5861	-5.80055	196.938	14.1198	-27.175	195.794	8.71527	-48.0553	240.196	16.1991	-32.0258	220.869	2.44415	-52.5047	197.868	-7.57171	-41.9418	243.803	-5.80236	-34.7217	218.683	-15.8772	-48.807	197.454	-21.2074	-24.1011	242.257	-28.7618	-29.5838	211.482	-31.3183	-34.1403	200.225	-23.4859	-9.73952	240.053	-44.1327	-21.6408	218.316	-36.7352	-25.9686	204.482	-27.4567	-7.78575	254.275	-18.7453	20.3876	245.519	-17.2594	42.7717	241.857	5.24697	31.2996	
169	1.40833	211.987	18.046	24.0392	201.332	18.6515	-5.56743	199.239	17.9264	-26.7426	195.58	14.0904	-51.6535	243.027	11.2902	-36.4885	224.434	5.54584	-51.5519	199.51	-3.69121	-42.0184	245.324	-6.30127	-34.7397	215.759	-14.6485	-47.1523	197.086	-16.8578	-21.3738	242.158	-26.4492	-28.5451	212.739	-28.0884	-33.4074	202.165	-20.8976	-8.04782	239.886	-43.3833	-21.2283	219.7	-39.7808	-26.1117	207.738	-22.3919	-4.7693	256.669	-20.3392	19.5337	241.792	-16.61	46.683	242.671	5.55266	31.3992	
170	1.41667	216.683	17.8678	20.8069	203.571	21.3012	-6.29454	203.46	22.3449	-31.5459	202.515	15.1978	-48.252	246.154	12.8022	-32.541	227.413	4.81722	-50.9372	198.424	-4.80454	-36.3495	246.451	-10.0527	-34.6493	216.148	-13.618	-45.6374	199.296	-15.3491	-18.6973	242.552	-24.2077	-28.6555	217.48	-27.1798	-34.6879	202.963	-21.403	-7.73985	241.242	-41.1754	-19.322	217.164	-34.7925	-24.5236	207.677	-23.6409	-1.53513	255.305	-21.1138	18.6819	244.569	-17.1464	45.8023	244.469	4.23995	32.1984	
171	1.425	218.055	21.9606	20.5263	209.963	20.9935	-4.27774	211.378	21.5751	-29.8687	209.468	18.8574	-49.6936	247.626	12.408	-34.1502	226.13	3.6874	-50.5717	200.393	-1.9881	-35.4003	245.401	-9.86503	-36.8239	217.374	-16.4081	-44.3344	198.316	-14.0371	-18.2158	243.357	-28.4423	-26.6854	214.697	-23.8153	-32.1142	203.745	-19.5277	-4.96948	239.749	-41.464	-20.8137	218.387	-36.1457	-25.3199	208.827	-20.2757	-1.09855	254.59	-19.6033	21.0767	245.135	-19.2715	44.4657	246.759	8.60266	32.7346	
172	1.43333	221.311	20.6027	21.9771	213.789	23.5672	-4.80807	214.481	27.7003	-30.2298	217.046	21.3194	-51.3446	249.314	13.4849	-31.8838	224.701	7.4466	-49.1675	199.293	0.901575	-32.7428	246.175	-6.73721	-35.2415	216.275	-9.96577	-44.2817	199.594	-12.2707	-19.3852	240.953	-26.2873	-28.5716	215.953	-25.5563	-32.5169	205.211	-14.2772	-7.36895	239	-44.665	-15.7557	213.917	-35.0322	-22.1622	211.283	-18.1557	-0.967288	254.946	-21.3465	20.5403	244.616	-18.1248	44.9661	248.892	3.81567	33.5372	
173	1.44167	222.956	20.0239	24.8853	217.656	23.4997	-3.09665	219.911	29.291	-28.1058	221.576	24.2585	-51.2619	249.211	12.0471	-34.345	227.477	5.05722	-48.837	201.87	-0.271822	-32.6153	246.062	-11.0727	-34.5308	217.489	-10.0384	-44.7635	198.94	-8.45497	-17.3474	240.372	-26.8811	-26.5217	214.263	-20.9306	-30.9475	204.565	-13.568	-3.97388	235.966	-43.9421	-15.516	214.896	-31.9316	-23.1111	208.211	-15.3689	-1.07356	251.873	-22.416	22.6475	244.438	-20.3913	48.5345	249.578	7.31504	32.4122	
174	1.45	222.047	21.7302	26.4598	220.227	24.567	-4.90638	220.841	27.8364	-23.9926	222.946	27.0793	-48.9912	249.205	10.3361	-34.0054	226.599	6.95566	-48.3511	200.395	2.91284	-30.419	245.429	-12.4601	-32.7063	218.816	-11.7426	-44.2016	197.217	-4.3168	-18.7793	238.595	-27.792	-26.6757	208.417	-20.9354	-28.725	201.035	-14.8517	-3.124	233.052	-41.8045	-17.0538	211.741	-31.707	-21.7708	208.687	-15.2643	0.437265	253.738	-23.7499	22.3654	242.059	-23.7465	48.2696	247.869	3.69133	33.862	
175	1.45833	222.751	21.2477	25.2026	220.545	25.1861	-4.72671	223.663	29.6667	-26.4478	225.561	23.9612	-44.7212	249.392	7.79491	-31.7868	226.445	5.17849	-49.0942	200.677	7.50859	-30.0242	243.979	-10.2634	-33.0399	212.369	-9.45002	-43.2717	197.105	-8.71751	-18.1307	234.747	-28.4175	-28.1458	208.38	-20.0828	-29.4123	200.623	-13.2111	-7.33505	228.879	-42.2892	-19.753	209.89	-28.6264	-21.2492	203.033	-16.4662	-0.328464	251.136	-27.5277	24.0066	239.536	-20.9419	47.5806	250.086	1.60757	32.6281	
176	1.46667	222.486	21.054	26.5686	221.715	26.1346	-2.84588	225.825	30.5261	-26.7643	229.052	23.1373	-45.27	248.848	5.54135	-33.1341	226.417	7.7917	-49.2946	202.801	9.82346	-33.0012	241.389	-12.2733	-35.324	213.082	-9.31735	-43.3381	196.385	-6.52742	-16.5516	234.046	-24.5721	-29.5247	210.826	-18.8009	-32.0927	199.102	-11.5849	-3.97118	229.022	-41.1223	-18.2713	206.759	-32.8733	-20.9854	201.474	-18.0263	-0.901506	249.889	-26.814	18.9571	239.72	-21.9811	48.5498	246.864	1.96473	31.5963	
177	1.475	221.736	23.9143	28.1083	220.388	29.4198	-1.82322	229.062	27.1692	-24.8303	228.889	29.7783	-46.4171	249.768	10.7274	-33.1022	225.171	5.96684	-47.9172	203.658	10.4151	-31.519	242.884	-11.9183	-31.4037	212.51	-5.24985	-43.4566	194.86	-1.51815	-15.1686	233.089	-28.9899	-26.9589	207.554	-20.1387	-31.6388	198.289	-9.62797	-5.99067	227.097	-42.6208	-16.0575	208.814	-28.7664	-23.621	205.184	-13.1285	-0.826107	247.957	-24.9527	24.2947	238.97	-23.321	49.4359	247.712	3.57875	34.8625	
